<svg width="1448" height="962" viewBox="0 0 1448 962" fill="none" xmlns="http://www.w3.org/2000/svg" xmlns:xlink="http://www.w3.org/1999/xlink">
<rect width="1448" height="962" fill="white"/>
<path d="M448.999 161.243H710.187C734.936 161.243 754.999 141.18 754.999 116.431V116.431C754.999 91.6821 734.936 71.6192 710.187 71.6192H513.016C477.66 71.6192 448.999 100.281 448.999 135.636V161.243Z" fill="#51DC8F"/>
<path d="M280.811 735.812V474.623C280.811 449.875 260.748 429.812 235.999 429.812V429.812C211.25 429.812 191.187 449.875 191.187 474.623V671.795C191.187 707.15 219.849 735.812 255.204 735.812H280.811Z" fill="#2FB8E3"/>
<path d="M1261.19 735.812V474.623C1261.19 449.875 1281.25 429.812 1306 429.812V429.812C1330.75 429.812 1350.81 449.875 1350.81 474.623V671.795C1350.81 707.15 1322.15 735.812 1286.79 735.812H1261.19Z" fill="#FFA318"/>
<path d="M768.999 161.243H1030.19C1054.94 161.243 1075 141.18 1075 116.431V116.431C1075 91.6821 1054.94 71.6192 1030.19 71.6192H833.016C797.66 71.6192 768.999 100.281 768.999 135.636V161.243Z" fill="#C37CF8"/>
<rect x="534.999" y="72" width="18" height="90" fill="white"/>
<rect x="864.999" y="71" width="18" height="90" fill="white"/>
<g filter="url(#filter0_d_0_1)">
<rect x="229" y="103" width="1076" height="598" rx="30" fill="black"/>
<rect x="231.5" y="105.5" width="1071" height="593" rx="27.5" stroke="white" stroke-width="5"/>
</g>
<mask id="mask0_0_1" style="mask-type:alpha" maskUnits="userSpaceOnUse" x="229" y="103" width="1076" height="598">
<rect x="231.5" y="105.5" width="1071" height="593" rx="27.5" fill="black" stroke="white" stroke-width="5"/>
</mask>
<g mask="url(#mask0_0_1)">
<rect x="84" y="-1" width="1376" height="1032" fill="url(#pattern0)"/>
</g>
<g filter="url(#filter1_d_0_1)">
<rect x="138.463" y="275.053" width="136" height="136" rx="20" transform="rotate(-17.8071 138.463 275.053)" fill="white"/>
</g>
<path d="M263.835 305.68C248.541 359.432 258.234 356.319 233.783 364.172C209.333 372.026 183.145 358.571 175.291 334.12C167.437 309.67 180.892 283.482 205.343 275.628C229.794 267.774 279.13 251.927 263.835 305.68Z" fill="#CDEBF4" fill-opacity="0.45"/>
<g clip-path="url(#clip0_0_1)">
<path d="M229.663 304.232C220.8 297.311 211.25 295.187 207.967 299.423C207.608 299.898 207.335 300.432 207.161 301.002C207.172 301.036 203.761 323.888 203.761 323.888L199.505 329.321C198.852 330.157 198.37 331.112 198.086 332.134C197.802 333.155 197.723 334.223 197.852 335.275C197.981 336.328 198.316 337.344 198.838 338.267C199.36 339.19 200.059 340.001 200.894 340.654L201.255 340.935C202.938 342.238 205.067 342.824 207.179 342.566C209.292 342.309 211.218 341.229 212.539 339.561L225.413 349.628C227.208 350.8 230.183 351.585 232.633 348.749C233.061 348.226 233.374 347.619 233.552 346.967C233.73 346.316 233.77 345.634 233.669 344.966C233.589 344.295 233.377 343.646 233.045 343.057C232.713 342.469 232.267 341.951 231.734 341.536L220.388 332.652C220.388 332.652 238.121 325.358 238.181 325.309C238.711 325.007 239.175 324.603 239.547 324.12C241.237 321.956 241.023 318.626 238.949 314.739C237.055 311.153 233.761 307.462 229.663 304.232V304.232ZM202.803 338.96L202.443 338.678C201.866 338.228 201.384 337.668 201.024 337.031C200.664 336.394 200.434 335.692 200.345 334.966C200.257 334.239 200.313 333.503 200.509 332.798C200.706 332.093 201.04 331.434 201.492 330.859L205.164 326.153L214.3 333.294L210.627 338C210.177 338.577 209.617 339.06 208.98 339.42C208.343 339.781 207.641 340.012 206.914 340.101C206.188 340.191 205.451 340.136 204.745 339.94C204.04 339.744 203.38 339.411 202.803 338.96ZM230.206 343.505C230.755 343.938 231.11 344.572 231.193 345.267C231.275 345.962 231.079 346.662 230.646 347.212C230.212 347.762 229.577 348.117 228.881 348.2C228.185 348.283 227.484 348.087 226.933 347.655L214.099 337.62L216.837 334.115L217.738 333.743L230.206 343.505ZM216.254 331.646L206.296 323.861L208.521 308.645C210.332 312.137 213.571 315.936 217.878 319.301C222.185 322.667 226.651 324.893 230.472 325.811L216.254 331.646ZM235.807 323.618C232.488 324.451 226.02 322.485 219.417 317.321C212.815 312.157 209.352 306.375 209.353 302.946C209.347 302.304 209.543 301.677 209.913 301.154C210.284 300.631 210.811 300.238 211.418 300.032C214.642 298.996 221.314 300.92 228.107 306.232C231.932 309.22 235.107 312.612 236.747 315.941C239.908 322.301 235.807 323.618 235.807 323.618V323.618Z" fill="#0075FF"/>
<path d="M221.243 307.214C220.357 307.318 219.501 307.598 218.725 308.037C217.949 308.475 217.268 309.064 216.722 309.769C216.621 309.9 216.548 310.049 216.505 310.209C216.462 310.368 216.451 310.534 216.473 310.697C216.494 310.861 216.548 311.018 216.63 311.161C216.713 311.304 216.822 311.429 216.953 311.529C217.084 311.63 217.233 311.703 217.392 311.746C217.552 311.789 217.718 311.8 217.881 311.778C218.045 311.757 218.202 311.703 218.345 311.621C218.488 311.538 218.613 311.429 218.713 311.298C219.06 310.855 219.491 310.484 219.981 310.207C220.471 309.93 221.01 309.752 221.569 309.684C222.128 309.615 222.694 309.658 223.237 309.809C223.779 309.959 224.286 310.215 224.73 310.562C225.173 310.909 225.544 311.339 225.821 311.829C226.098 312.319 226.276 312.859 226.344 313.418C226.412 313.977 226.37 314.543 226.219 315.086C226.069 315.628 225.813 316.135 225.466 316.579C225.303 316.79 225.212 317.048 225.207 317.315C225.201 317.582 225.282 317.843 225.435 318.062C225.589 318.28 225.809 318.443 226.062 318.527C226.315 318.611 226.589 318.612 226.843 318.53C227.087 318.456 227.301 318.309 227.457 318.107C228.285 317.051 228.78 315.773 228.881 314.435C228.981 313.096 228.683 311.759 228.022 310.59C227.362 309.422 226.37 308.477 225.171 307.873C223.973 307.269 222.622 307.035 221.29 307.199L221.243 307.214Z" fill="#0075FF"/>
<path d="M228.473 295.484L228.589 295.447C228.883 295.352 229.132 295.152 229.287 294.885C229.442 294.617 229.493 294.302 229.429 293.999L227.481 284.782C227.452 284.617 227.389 284.461 227.298 284.321C227.206 284.181 227.088 284.061 226.949 283.967C226.81 283.874 226.654 283.809 226.49 283.778C226.326 283.746 226.157 283.747 225.994 283.781C225.83 283.816 225.675 283.883 225.538 283.978C225.401 284.074 225.284 284.196 225.195 284.337C225.105 284.478 225.045 284.636 225.018 284.801C224.991 284.966 224.997 285.135 225.036 285.297L226.993 294.519C227.061 294.843 227.256 295.127 227.533 295.308C227.811 295.489 228.149 295.552 228.473 295.484V295.484Z" fill="#0075FF"/>
<path d="M243.267 288.707C243.007 288.5 242.676 288.403 242.346 288.439C242.016 288.475 241.714 288.64 241.505 288.898L234.962 297.001C234.793 297.212 234.696 297.473 234.688 297.744C234.679 298.014 234.759 298.281 234.915 298.502C235.07 298.724 235.294 298.889 235.552 298.973C235.809 299.056 236.087 299.054 236.344 298.966C236.586 298.894 236.801 298.751 236.963 298.557L243.505 290.453C243.704 290.19 243.791 289.858 243.746 289.531C243.701 289.204 243.529 288.907 243.267 288.707V288.707Z" fill="#0075FF"/>
<path d="M250.469 302.418L240.269 303.782C239.94 303.826 239.641 303.999 239.44 304.262C239.238 304.526 239.15 304.859 239.194 305.188C239.238 305.517 239.411 305.816 239.675 306.017C239.938 306.219 240.272 306.307 240.601 306.263L250.794 304.902L251.005 304.834C251.311 304.746 251.572 304.544 251.734 304.269C251.896 303.995 251.947 303.669 251.877 303.358C251.807 303.048 251.621 302.775 251.357 302.597C251.092 302.419 250.77 302.349 250.456 302.4L250.469 302.418Z" fill="#0075FF"/>
</g>
<g filter="url(#filter2_d_0_1)">
<rect x="986" y="613" width="295" height="166" rx="20" fill="white"/>
</g>
<mask id="mask1_0_1" style="mask-type:alpha" maskUnits="userSpaceOnUse" x="986" y="613" width="294" height="166">
<rect x="986" y="613" width="294" height="166" rx="20" fill="white"/>
</mask>
<g mask="url(#mask1_0_1)">
<rect x="64" y="5" width="1376" height="1032" fill="url(#pattern1)"/>
</g>
<defs>
<filter id="filter0_d_0_1" x="86" y="0" width="1362" height="884" filterUnits="userSpaceOnUse" color-interpolation-filters="sRGB">
<feFlood flood-opacity="0" result="BackgroundImageFix"/>
<feColorMatrix in="SourceAlpha" type="matrix" values="0 0 0 0 0 0 0 0 0 0 0 0 0 0 0 0 0 0 127 0" result="hardAlpha"/>
<feOffset dy="40"/>
<feGaussianBlur stdDeviation="71.5"/>
<feComposite in2="hardAlpha" operator="out"/>
<feColorMatrix type="matrix" values="0 0 0 0 0 0 0 0 0 0.165745 0 0 0 0 0.216667 0 0 0 0.15 0"/>
<feBlend mode="normal" in2="BackgroundImageFix" result="effect1_dropShadow_0_1"/>
<feBlend mode="normal" in="SourceGraphic" in2="effect1_dropShadow_0_1" result="shape"/>
</filter>
<pattern id="pattern0" patternContentUnits="objectBoundingBox" width="1" height="1">
<use xlink:href="#image0_0_1" transform="scale(0.000625 0.000833333)"/>
</pattern>
<filter id="filter1_d_0_1" x="0.615601" y="135.615" width="446.77" height="446.77" filterUnits="userSpaceOnUse" color-interpolation-filters="sRGB">
<feFlood flood-opacity="0" result="BackgroundImageFix"/>
<feColorMatrix in="SourceAlpha" type="matrix" values="0 0 0 0 0 0 0 0 0 0 0 0 0 0 0 0 0 0 127 0" result="hardAlpha"/>
<feOffset dy="40"/>
<feGaussianBlur stdDeviation="71.5"/>
<feComposite in2="hardAlpha" operator="out"/>
<feColorMatrix type="matrix" values="0 0 0 0 0 0 0 0 0 0.0592647 0 0 0 0 0.129167 0 0 0 0.15 0"/>
<feBlend mode="normal" in2="BackgroundImageFix" result="effect1_dropShadow_0_1"/>
<feBlend mode="normal" in="SourceGraphic" in2="effect1_dropShadow_0_1" result="shape"/>
</filter>
<filter id="filter2_d_0_1" x="843" y="510" width="581" height="452" filterUnits="userSpaceOnUse" color-interpolation-filters="sRGB">
<feFlood flood-opacity="0" result="BackgroundImageFix"/>
<feColorMatrix in="SourceAlpha" type="matrix" values="0 0 0 0 0 0 0 0 0 0 0 0 0 0 0 0 0 0 127 0" result="hardAlpha"/>
<feOffset dy="40"/>
<feGaussianBlur stdDeviation="71.5"/>
<feComposite in2="hardAlpha" operator="out"/>
<feColorMatrix type="matrix" values="0 0 0 0 0 0 0 0 0 0.0592647 0 0 0 0 0.129167 0 0 0 0.15 0"/>
<feBlend mode="normal" in2="BackgroundImageFix" result="effect1_dropShadow_0_1"/>
<feBlend mode="normal" in="SourceGraphic" in2="effect1_dropShadow_0_1" result="shape"/>
</filter>
<pattern id="pattern1" patternContentUnits="objectBoundingBox" width="1" height="1">
<use xlink:href="#image0_0_1" transform="scale(0.000625 0.000833333)"/>
</pattern>
<clipPath id="clip0_0_1">
<rect width="65" height="65" fill="white" transform="translate(183.442 297.367) rotate(-17.8071)"/>
</clipPath>
</defs>
</svg>
